<svg
        width="12"
        height="12"
        viewBox="0 0 12 12"
        xmlns="http://www.w3.org/2000/svg"
       
      >
        <path d="M5 6.66667H0.333333C0.133333 6.66667 0 6.8 0 7V11.6667C0 11.8667 0.133333 12 0.333333 12H5C5.2 12 5.33333 11.8667 5.33333 11.6667V7C5.33333 6.8 5.2 6.66667 5 6.66667ZM4.66667 11.3333H0.666667V7.33333H4.66667V11.3333ZM5 0H0.333333C0.133333 0 0 0.133333 0 0.333333V5C0 5.2 0.133333 5.33333 0.333333 5.33333H5C5.2 5.33333 5.33333 5.2 5.33333 5V0.333333C5.33333 0.133333 5.2 0 5 0ZM4.66667 4.66667H0.666667V0.666667H4.66667V4.66667ZM11.6667 0H7C6.8 0 6.66667 0.133333 6.66667 0.333333V5C6.66667 5.2 6.8 5.33333 7 5.33333H11.6667C11.8667 5.33333 12 5.2 12 5V0.333333C12 0.133333 11.8667 0 11.6667 0ZM11.3333 4.66667H7.33333V0.666667H11.3333V4.66667ZM11.6667 9H9.66667V7C9.66667 6.8 9.53333 6.66667 9.33333 6.66667C9.13333 6.66667 9 6.8 9 7V9H7C6.8 9 6.66667 9.13333 6.66667 9.33333C6.66667 9.53333 6.8 9.66667 7 9.66667H9V11.6667C9 11.8667 9.13333 12 9.33333 12C9.53333 12 9.66667 11.8667 9.66667 11.6667V9.66667H11.6667C11.8667 9.66667 12 9.53333 12 9.33333C12 9.13333 11.8667 9 11.6667 9Z" />
      </svg>