<svg width="26" height="26" viewBox="0 0 26 26" fill="none" xmlns="http://www.w3.org/2000/svg">
<g clip-path="url(#clip0_471_583)" filter="url(#filter0_d_471_583)">
<path d="M4.53033 17.2721H21.4715C21.5417 17.2721 21.609 17.2442 21.6587 17.1945C21.7083 17.1449 21.7362 17.0776 21.7362 17.0073C21.7362 16.9371 21.7083 16.8698 21.6587 16.8202C21.609 16.7705 21.5417 16.7426 21.4715 16.7426H16.8865V15.867C16.8863 15.6431 16.7973 15.4284 16.639 15.2701C16.4807 15.1118 16.266 15.0228 16.0421 15.0226H15.2342L14.7064 13.2565H20.3518C20.5862 13.2563 20.811 13.163 20.9768 12.9973C21.1426 12.8315 21.2359 12.6068 21.2362 12.3723L21.2388 1.65441C21.2388 1.14352 20.8232 0.727936 20.3124 0.727936H5.75115C5.24027 0.727936 4.82468 1.14352 4.82468 1.65441V12.3723C4.82489 12.6068 4.91811 12.8315 5.08387 12.9973C5.24963 13.163 5.47438 13.2563 5.7088 13.2565H11.3574L10.8293 15.0228H10.0214C9.79755 15.0231 9.58293 15.1121 9.42463 15.2703C9.26632 15.4286 9.17726 15.6432 9.17698 15.867V16.7424H4.53033C4.46013 16.7424 4.3928 16.7703 4.34316 16.8199C4.29351 16.8695 4.26562 16.9369 4.26562 17.0071C4.26562 17.0773 4.29351 17.1446 4.34316 17.1943C4.3928 17.2439 4.46013 17.2721 4.53033 17.2721ZM5.3541 1.65441C5.3541 1.43549 5.53224 1.25735 5.75115 1.25735H20.3126C20.5315 1.25735 20.7097 1.43549 20.7097 1.65441V10.3235H5.3541V1.65441ZM5.7088 12.7271C5.51292 12.7271 5.3541 12.5682 5.3541 12.3723V10.8529H20.707V12.3723C20.707 12.5682 20.5479 12.7271 20.3523 12.7271H5.7088ZM11.9101 13.2565H14.1537L14.6818 15.0228H11.382L11.9101 13.2565ZM9.70665 15.867C9.70665 15.7835 9.73984 15.7033 9.79892 15.6443C9.85799 15.5852 9.93811 15.552 10.0217 15.552H16.0421C16.216 15.552 16.3571 15.6933 16.3571 15.867V16.6111H9.70665V15.867Z" fill="#5E676B"/>
<path d="M13.0897 1.99959C11.0017 1.97127 9.27157 3.64077 9.23875 5.73168C9.20619 7.82709 10.8746 9.54953 12.9708 9.58262L13.032 9.58289C15.0745 9.58289 16.789 7.94886 16.8215 5.85053C16.8543 3.75989 15.1803 2.03242 13.0897 1.99959ZM12.979 9.05321C11.1804 9.02489 9.7401 7.53856 9.76816 5.73989C9.77372 5.31133 9.86422 4.88813 10.0344 4.49479C10.2046 4.10144 10.4512 3.74576 10.7597 3.44833C11.0667 3.14916 11.4299 2.91386 11.8284 2.75606C12.2269 2.59825 12.6527 2.52108 13.0812 2.529C14.8799 2.55733 16.3204 4.04339 16.2921 5.84233C16.2856 6.27074 16.1947 6.69367 16.0246 7.08693C15.8546 7.4802 15.6087 7.83609 15.301 8.13427C14.9933 8.43244 14.6298 8.66705 14.2314 8.82468C13.833 8.98232 13.4075 9.06015 12.979 9.05321Z" fill="#5E676B"/>
<path d="M13.6877 5.88177C14.0739 5.6475 14.3349 5.22715 14.3349 4.74353C14.3349 4.00739 13.7359 3.40836 12.9997 3.40836C12.2636 3.40836 11.6645 4.00739 11.6645 4.74353C11.6645 5.23721 11.9372 5.66418 12.3364 5.895C11.498 6.18353 10.8831 6.97421 10.8672 7.90465C10.8666 7.93981 10.8729 7.97475 10.8859 8.00741C10.8989 8.04008 10.9183 8.06983 10.943 8.0949C10.9676 8.11997 10.9971 8.13987 11.0295 8.15343C11.062 8.16699 11.0968 8.17393 11.1319 8.17385H14.9289C14.964 8.17386 14.9988 8.16687 15.0312 8.15328C15.0636 8.1397 15.093 8.1198 15.1177 8.09474C15.1423 8.06968 15.1617 8.03997 15.1747 8.00733C15.1878 7.97469 15.1942 7.93979 15.1936 7.90465C15.1774 6.96044 14.5451 6.15891 13.6877 5.88177ZM12.9997 3.93777C13.4441 3.93777 13.8055 4.29936 13.8055 4.74353C13.8055 5.18771 13.4441 5.54903 12.9997 5.54903C12.5553 5.54903 12.1939 5.18771 12.1939 4.74353C12.1939 4.29936 12.555 3.93777 12.9997 3.93777ZM11.4239 7.64444C11.5653 6.88606 12.2366 6.30662 13.0307 6.30662C13.8248 6.30662 14.4956 6.88606 14.6372 7.64444H11.4239Z" fill="#5E676B"/>
</g>
<defs>
<filter id="filter0_d_471_583" x="0" y="0" width="26" height="26" filterUnits="userSpaceOnUse" color-interpolation-filters="sRGB">
<feFlood flood-opacity="0" result="BackgroundImageFix"/>
<feColorMatrix in="SourceAlpha" type="matrix" values="0 0 0 0 0 0 0 0 0 0 0 0 0 0 0 0 0 0 127 0" result="hardAlpha"/>
<feOffset dy="4"/>
<feGaussianBlur stdDeviation="2"/>
<feComposite in2="hardAlpha" operator="out"/>
<feColorMatrix type="matrix" values="0 0 0 0 0 0 0 0 0 0 0 0 0 0 0 0 0 0 0.25 0"/>
<feBlend mode="normal" in2="BackgroundImageFix" result="effect1_dropShadow_471_583"/>
<feBlend mode="normal" in="SourceGraphic" in2="effect1_dropShadow_471_583" result="shape"/>
</filter>
<clipPath id="clip0_471_583">
<rect width="18" height="18" fill="white" transform="translate(4)"/>
</clipPath>
</defs>
</svg>
